<svg viewBox="0 0 760 560" xmlns="http://www.w3.org/2000/svg" role="img" aria-labelledby="t d" font-family="'Space Grotesk', system-ui, sans-serif">
  <title id="t">Smith, the brain of Alloy (full, deck and diligence only)</title>
  <desc id="d">DECK / DILIGENCE ONLY. Names the grounding sources (knowledge base, tri-cloud docs and pricing, Partner Central co-sell, the Nordic and EU data moat) and the eval gate. Do not post publicly. Smith forges grounded inputs into sales outputs, eval-gated and human-in-the-loop, with three powers: self-verify, remembers and learns, proactive.</desc>
  <rect x="0" y="0" width="760" height="560" rx="18" fill="#0E0F12"/>
  <defs>
    <marker id="ar" viewBox="0 0 10 10" refX="8" refY="5" markerWidth="6" markerHeight="6" orient="auto-start-reverse"><path d="M0,0 L10,5 L0,10 z" fill="#9BA8B3"/></marker>
  </defs>
  <text x="30" y="40" font-family="'Space Mono', ui-monospace, monospace" font-size="12" letter-spacing="3" fill="#9BA8B3">ALLOY  ·  SMITH</text>
  <text x="30" y="70" font-size="27" font-weight="700" fill="#ECF0F3">Smith, the brain of Alloy</text>
  <text x="30" y="94" font-size="14" fill="#9BA8B3">Grounded in. Forged out. Eval-gated, human-in-the-loop.</text>

  <text x="30" y="132" font-family="'Space Mono', ui-monospace, monospace" font-size="11" letter-spacing="2" fill="#9E92D8" font-weight="700">GROUNDED IN  &#8594;</text>
  <text x="730" y="132" text-anchor="end" font-family="'Space Mono', ui-monospace, monospace" font-size="11" letter-spacing="2" fill="#D9722E" font-weight="700">&#8594;  FORGES</text>

  <g stroke="#2A2C32" stroke-width="1" opacity="0.7" fill="none">
    <path d="M226,174 C270,174 270,254 305,254"/>
    <path d="M226,238 C275,238 275,254 305,254"/>
    <path d="M226,302 C275,302 275,254 305,254"/>
    <path d="M226,366 C270,366 270,254 305,254"/>
    <path d="M455,254 C485,254 485,174 534,174"/>
    <path d="M455,254 C485,254 485,238 534,238"/>
    <path d="M455,254 C485,254 485,302 534,302"/>
    <path d="M455,254 C485,254 485,366 534,366"/>
  </g>

  <g font-size="13" fill="#ECF0F3">
    <g><rect x="30" y="149" width="196" height="50" rx="8" fill="#16171B" stroke="#2A2C32"/><rect x="30" y="149" width="4" height="50" fill="#9E92D8"/><text x="48" y="179">Knowledge base + RAG</text></g>
    <g><rect x="30" y="213" width="196" height="50" rx="8" fill="#16171B" stroke="#2A2C32"/><rect x="30" y="213" width="4" height="50" fill="#9E92D8"/><text x="48" y="243">Tri-cloud docs + pricing</text></g>
    <g><rect x="30" y="277" width="196" height="50" rx="8" fill="#16171B" stroke="#2A2C32"/><rect x="30" y="277" width="4" height="50" fill="#9E92D8"/><text x="48" y="307">Partner Central co-sell</text></g>
    <g><rect x="30" y="341" width="196" height="50" rx="8" fill="#16171B" stroke="#2A2C32"/><rect x="30" y="341" width="4" height="50" fill="#9E92D8"/><text x="48" y="371">Nordic / EU data moat</text></g>
  </g>
  <g font-size="13" fill="#ECF0F3">
    <g><rect x="534" y="149" width="196" height="50" rx="8" fill="#16171B" stroke="#2A2C32"/><rect x="726" y="149" width="4" height="50" fill="#D9722E"/><text x="550" y="179">Account reads</text></g>
    <g><rect x="534" y="213" width="196" height="50" rx="8" fill="#16171B" stroke="#2A2C32"/><rect x="726" y="213" width="4" height="50" fill="#D9722E"/><text x="550" y="243">Funded plays + openers</text></g>
    <g><rect x="534" y="277" width="196" height="50" rx="8" fill="#16171B" stroke="#2A2C32"/><rect x="726" y="277" width="4" height="50" fill="#D9722E"/><text x="550" y="307">Briefs + paperwork</text></g>
    <g><rect x="534" y="341" width="196" height="50" rx="8" fill="#16171B" stroke="#2A2C32"/><rect x="726" y="341" width="4" height="50" fill="#D9722E"/><text x="550" y="371">Next best actions</text></g>
  </g>

  <rect x="286" y="170" width="188" height="168" rx="18" fill="none" stroke="#7C8893" stroke-width="1" stroke-dasharray="3 4" opacity="0.55"/>
  <text x="380" y="164" text-anchor="middle" font-family="'Space Mono', ui-monospace, monospace" font-size="9.5" letter-spacing="1.5" fill="#7C8893">EVAL GATE · VOICE + FAITHFULNESS</text>
  <text x="380" y="354" text-anchor="middle" font-family="'Space Mono', ui-monospace, monospace" font-size="9.5" letter-spacing="1.5" fill="#7C8893">HUMAN-IN-THE-LOOP</text>

  <defs><clipPath id="avf"><circle cx="380" cy="240" r="52"/></clipPath></defs>
  <image href="smith-face.png" x="328" y="188" width="104" height="104" clip-path="url(#avf)" preserveAspectRatio="xMidYMid slice"/>
  <circle cx="380" cy="240" r="52" fill="none" stroke="#9E92D8" stroke-width="2"/>
  <text x="380" y="314" text-anchor="middle" font-size="20" font-weight="700" fill="#ECF0F3">SMITH</text>
  <text x="380" y="331" text-anchor="middle" font-size="11.5" fill="#9BA8B3">AI co-worker</text>

  <text x="30" y="424" font-family="'Space Mono', ui-monospace, monospace" font-size="11" letter-spacing="2" fill="#9BA8B3">THREE POWERS</text>
  <g>
    <rect x="30" y="436" width="220" height="66" rx="10" fill="#16171B" stroke="#9E92D8" stroke-width="1.5"/>
    <text x="46" y="464" font-family="'Space Mono', ui-monospace, monospace" font-size="13" font-weight="700" fill="#9E92D8">SELF-VERIFY</text>
    <text x="46" y="486" font-size="12.5" fill="#9BA8B3">checks every claim vs source</text>
  </g>
  <g>
    <rect x="270" y="436" width="220" height="66" rx="10" fill="#16171B" stroke="#D9722E" stroke-width="1.5"/>
    <text x="286" y="464" font-family="'Space Mono', ui-monospace, monospace" font-size="13" font-weight="700" fill="#D9722E">REMEMBERS + LEARNS</text>
    <text x="286" y="486" font-size="12.5" fill="#9BA8B3">recalls accounts, learns wins</text>
  </g>
  <g>
    <rect x="510" y="436" width="220" height="66" rx="10" fill="#16171B" stroke="#9E92D8" stroke-width="1.5"/>
    <text x="526" y="464" font-family="'Space Mono', ui-monospace, monospace" font-size="13" font-weight="700" fill="#9E92D8">PROACTIVE</text>
    <text x="526" y="486" font-size="12.5" fill="#9BA8B3">surfaces the next move</text>
  </g>

  <text x="380" y="534" text-anchor="middle" font-family="'Space Mono', ui-monospace, monospace" font-size="11" letter-spacing="2" fill="#9BA8B3">SOFTWARE FORGES.  HUMANS CLOSE.</text>
</svg>
